<svg xmlns="http://www.w3.org/2000/svg" viewBox="0 0 64 64">
  <rect width="64" height="64" rx="10" fill="#fff"/>
  <path d="M13.637 49.924Q12.682 40.127 11.501 28.747Q11.024 24.175 10.271 19.1Q9.994 17.216 9.492 16.777Q8.989 16.337 7.331 16.337H6L6.276 14.629Q10.647 14.755 14.064 14.755Q17.48 14.755 21.248 14.629L21.223 16.337H19.917Q18.033 16.337 17.53 16.714Q17.028 17.091 17.028 18.221Q17.028 19.879 18.284 32.49L19.214 41.935Q23.886 32.063 26.85 26.034L32.502 14.076H34.135Q34.386 14.729 35.391 18.372L37.552 26.411L41.998 42.639Q47.374 28.521 48.68 25.079Q49.685 22.442 50.514 19.402Q50.866 18.096 50.866 17.593Q50.866 16.965 50.3 16.651Q49.735 16.337 48.027 16.337H46.394L46.671 14.629Q51.72 14.78 53.127 14.78Q55.237 14.78 58 14.629L57.699 16.337H57.071Q55.463 16.337 54.96 17.103Q54.458 17.87 50.313 28.27L44.711 42.186Q42.701 47.211 41.747 49.924H37.401Q36.798 47.361 35.818 43.844Q34.537 39.071 30.392 24.3Q24.815 35.555 17.882 49.924Z" fill="#000080"/>
</svg>
